<mxfile host="65bd71144e">
    <diagram id="ZL7E4Xh3ExxNGb7b7Txe" name="Page-1">
        <mxGraphModel dx="1179" dy="544" grid="1" gridSize="10" guides="1" tooltips="1" connect="1" arrows="1" fold="1" page="1" pageScale="1" pageWidth="850" pageHeight="1100" math="0" shadow="0">
            <root>
                <mxCell id="0"/>
                <mxCell id="1" parent="0"/>
                <mxCell id="56" style="edgeStyle=none;html=1;exitX=0.5;exitY=1;exitDx=0;exitDy=0;entryX=0.5;entryY=0;entryDx=0;entryDy=0;fontFamily=Lucida Console;" parent="1" source="52" target="53" edge="1">
                    <mxGeometry relative="1" as="geometry"/>
                </mxCell>
                <mxCell id="52" value="Upload file &lt;br&gt;&amp;amp; validation rules" style="rounded=0;whiteSpace=wrap;html=1;fontFamily=Lucida Console;" parent="1" vertex="1">
                    <mxGeometry x="120" y="30" width="200" height="80" as="geometry"/>
                </mxCell>
                <mxCell id="57" style="edgeStyle=none;html=1;exitX=0.5;exitY=1;exitDx=0;exitDy=0;entryX=0.5;entryY=0;entryDx=0;entryDy=0;fontFamily=Lucida Console;" parent="1" source="53" target="54" edge="1">
                    <mxGeometry relative="1" as="geometry"/>
                </mxCell>
                <mxCell id="53" value="Transform file" style="rounded=0;whiteSpace=wrap;html=1;fontFamily=Lucida Console;" parent="1" vertex="1">
                    <mxGeometry x="120" y="150" width="200" height="80" as="geometry"/>
                </mxCell>
                <mxCell id="58" style="edgeStyle=none;html=1;exitX=0.5;exitY=1;exitDx=0;exitDy=0;fontFamily=Lucida Console;" parent="1" source="54" target="55" edge="1">
                    <mxGeometry relative="1" as="geometry"/>
                </mxCell>
                <mxCell id="54" value="Get CrewAI map recommendations" style="rounded=0;whiteSpace=wrap;html=1;fontFamily=Lucida Console;" parent="1" vertex="1">
                    <mxGeometry x="120" y="260" width="200" height="80" as="geometry"/>
                </mxCell>
                <mxCell id="55" value="Map according to CrewAI output" style="rounded=0;whiteSpace=wrap;html=1;fontFamily=Lucida Console;" parent="1" vertex="1">
                    <mxGeometry x="120" y="380" width="200" height="80" as="geometry"/>
                </mxCell>
            </root>
        </mxGraphModel>
    </diagram>
    <diagram id="Q2RfeR0pTYkqXNrGA6m6" name="Page-2">
        <mxGraphModel dx="1958" dy="1088" grid="1" gridSize="10" guides="1" tooltips="1" connect="1" arrows="1" fold="1" page="1" pageScale="1" pageWidth="850" pageHeight="1100" math="0" shadow="0">
            <root>
                <mxCell id="0"/>
                <mxCell id="1" parent="0"/>
                <mxCell id="Mm-_7T5yNDtdQ3yfOyZ5-4" style="edgeStyle=none;html=1;exitX=0.25;exitY=1;exitDx=0;exitDy=0;entryX=0.5;entryY=0;entryDx=0;entryDy=0;fontFamily=Lucida Console;fontSize=22;" edge="1" parent="1" source="Mm-_7T5yNDtdQ3yfOyZ5-1" target="Mm-_7T5yNDtdQ3yfOyZ5-2">
                    <mxGeometry relative="1" as="geometry"/>
                </mxCell>
                <mxCell id="Mm-_7T5yNDtdQ3yfOyZ5-5" style="edgeStyle=none;html=1;exitX=0.75;exitY=1;exitDx=0;exitDy=0;entryX=0.5;entryY=0;entryDx=0;entryDy=0;fontFamily=Lucida Console;fontSize=22;" edge="1" parent="1" source="Mm-_7T5yNDtdQ3yfOyZ5-1" target="Mm-_7T5yNDtdQ3yfOyZ5-3">
                    <mxGeometry relative="1" as="geometry"/>
                </mxCell>
                <mxCell id="Mm-_7T5yNDtdQ3yfOyZ5-1" value="&lt;font face=&quot;Lucida Console&quot; style=&quot;font-size: 29px;&quot;&gt;CrewAI Recommendation&lt;/font&gt;" style="rounded=0;whiteSpace=wrap;html=1;" vertex="1" parent="1">
                    <mxGeometry x="130" y="70" width="480" height="290" as="geometry"/>
                </mxCell>
                <mxCell id="Mm-_7T5yNDtdQ3yfOyZ5-2" value="&lt;font style=&quot;font-size: 22px;&quot;&gt;Column names in file&lt;/font&gt;" style="rounded=0;whiteSpace=wrap;html=1;fontFamily=Lucida Console;fontSize=29;" vertex="1" parent="1">
                    <mxGeometry x="120" y="470" width="260" height="130" as="geometry"/>
                </mxCell>
                <mxCell id="Mm-_7T5yNDtdQ3yfOyZ5-3" value="&lt;font style=&quot;font-size: 22px;&quot;&gt;Column names in recommendation&lt;/font&gt;" style="rounded=0;whiteSpace=wrap;html=1;fontFamily=Lucida Console;fontSize=29;" vertex="1" parent="1">
                    <mxGeometry x="450" y="470" width="260" height="130" as="geometry"/>
                </mxCell>
                <mxCell id="Mm-_7T5yNDtdQ3yfOyZ5-6" value="&lt;font style=&quot;font-size: 30px;&quot;&gt;Filter&lt;/font&gt;" style="text;html=1;strokeColor=none;fillColor=none;align=center;verticalAlign=middle;whiteSpace=wrap;rounded=0;fontFamily=Lucida Console;fontSize=22;" vertex="1" parent="1">
                    <mxGeometry x="600" y="390" width="60" height="30" as="geometry"/>
                </mxCell>
            </root>
        </mxGraphModel>
    </diagram>
</mxfile>